<svg width="463" height="129" viewBox="0 0 463 129" fill="none" xmlns="http://www.w3.org/2000/svg">
<path d="M39.9677 41.1152L-0.000110152 101.579C22.7661 116.55 53.3898 110.279 68.3998 87.5714L108.368 27.1078C85.6014 12.1366 54.9777 18.4079 39.9677 41.1152Z" fill="#659898"/>
<path d="M88.2582 69.3784L59.35 35.1172C46.4497 45.9457 44.793 65.1546 55.6496 78.0216L84.5578 112.283C97.4581 101.454 99.1148 82.2453 88.2582 69.3784Z" fill="#4B4EC0"/>
<path d="M176.025 93.6945C172.437 93.6945 170.643 91.8425 170.643 88.1385V36.5723C170.643 32.9262 172.437 31.1032 176.025 31.1032C179.671 31.1032 181.494 32.9262 181.494 36.5723V68.6059H181.668L195.992 53.5006C197.149 52.3431 198.162 51.4461 199.03 50.8095C199.898 50.1728 201.085 49.8545 202.59 49.8545C204.094 49.8545 205.223 50.2596 205.975 51.0699C206.785 51.8223 207.191 52.7482 207.191 53.8479C207.191 54.9475 206.67 56.0471 205.628 57.1467L192.606 70.863L207.104 86.4891C208.145 87.5887 208.608 88.7173 208.493 89.8748C208.435 90.9744 207.972 91.9004 207.104 92.6528C206.236 93.3472 205.136 93.6945 203.805 93.6945C202.184 93.6945 200.882 93.3762 199.898 92.7396C198.972 92.1029 197.931 91.148 196.773 89.8748L181.668 74.075H181.494V88.1385C181.494 91.8425 179.671 93.6945 176.025 93.6945ZM222.568 93.6945C218.98 93.6945 217.185 91.8425 217.185 88.1385V36.5723C217.185 32.9262 218.98 31.1032 222.568 31.1032C226.214 31.1032 228.037 32.9262 228.037 36.5723V56.7127C229.484 54.3977 231.423 52.6614 233.853 51.5039C236.284 50.2886 238.975 49.6809 241.927 49.6809C251.939 49.6809 256.945 55.4973 256.945 67.1301V88.1385C256.945 91.8425 255.151 93.6945 251.563 93.6945C247.917 93.6945 246.094 91.8425 246.094 88.1385V67.6509C246.094 64.3521 245.457 61.9503 244.184 60.4456C242.969 58.9408 241.059 58.1885 238.454 58.1885C235.271 58.1885 232.725 59.2013 230.815 61.2269C228.963 63.1946 228.037 65.8279 228.037 69.1267V88.1385C228.037 91.8425 226.214 93.6945 222.568 93.6945ZM287.326 93.8681C282.928 93.8681 279.108 92.9711 275.867 91.177C272.626 89.3828 270.108 86.8364 268.314 83.5375C266.52 80.1808 265.623 76.2453 265.623 71.7311C265.623 67.2169 266.52 63.3104 268.314 60.0115C270.108 56.7127 272.626 54.1662 275.867 52.3721C279.108 50.578 282.928 49.6809 287.326 49.6809C291.724 49.6809 295.544 50.578 298.785 52.3721C302.026 54.1662 304.544 56.7127 306.338 60.0115C308.132 63.3104 309.029 67.2169 309.029 71.7311C309.029 76.2453 308.132 80.1808 306.338 83.5375C304.544 86.8364 302.026 89.3828 298.785 91.177C295.544 92.9711 291.724 93.8681 287.326 93.8681ZM287.326 85.621C290.567 85.621 293.171 84.4635 295.139 82.1485C297.107 79.7757 298.091 76.3032 298.091 71.7311C298.091 67.1011 297.107 63.6576 295.139 61.4005C293.171 59.0855 290.567 57.928 287.326 57.928C284.085 57.928 281.481 59.0855 279.513 61.4005C277.545 63.6576 276.561 67.1011 276.561 71.7311C276.561 76.3032 277.545 79.7757 279.513 82.1485C281.481 84.4635 284.085 85.621 287.326 85.621ZM323.715 41.8678C321.689 41.8678 320.098 41.3759 318.94 40.392C317.841 39.3503 317.291 37.9324 317.291 36.1383C317.291 34.2863 317.841 32.8683 318.94 31.8845C320.098 30.9006 321.689 30.4087 323.715 30.4087C327.998 30.4087 330.139 32.3185 330.139 36.1383C330.139 39.958 327.998 41.8678 323.715 41.8678ZM312.777 109.407C311.156 109.523 309.941 109.205 309.131 108.453C308.263 107.758 307.771 106.89 307.655 105.848C307.539 104.806 307.771 103.851 308.349 102.983C308.87 102.115 309.709 101.623 310.867 101.508C313.471 101.276 315.352 100.524 316.51 99.2505C317.725 98.0351 318.333 96.1542 318.333 93.6077V55.3237C318.333 51.6776 320.156 49.8545 323.802 49.8545C327.39 49.8545 329.184 51.6776 329.184 55.3237V92.6528C329.184 98.2666 327.853 102.347 325.191 104.893C322.529 107.44 318.391 108.944 312.777 109.407Z" fill="#4B4EC0"/>
<path d="M364.932 93.8681C361.807 93.8681 359.029 93.2026 356.598 91.8714C354.168 90.4825 352.345 88.6305 351.129 86.3155V88.1385C351.129 91.8425 349.364 93.6945 345.834 93.6945C342.246 93.6945 340.451 91.8425 340.451 88.1385V36.5723C340.451 32.9262 342.246 31.1032 345.834 31.1032C349.48 31.1032 351.303 32.9262 351.303 36.5723V56.7995C352.576 54.6581 354.399 52.9508 356.772 51.6776C359.203 50.3465 361.923 49.6809 364.932 49.6809C368.694 49.6809 371.964 50.578 374.742 52.3721C377.52 54.1662 379.69 56.7127 381.253 60.0115C382.816 63.2525 383.597 67.159 383.597 71.7311C383.597 76.2453 382.816 80.1808 381.253 83.5375C379.69 86.8364 377.491 89.3828 374.655 91.177C371.877 92.9711 368.636 93.8681 364.932 93.8681ZM361.894 85.621C365.135 85.621 367.739 84.4635 369.707 82.1485C371.675 79.7757 372.659 76.3032 372.659 71.7311C372.659 67.1011 371.675 63.6576 369.707 61.4005C367.739 59.0855 365.135 57.928 361.894 57.928C358.653 57.928 356.049 59.0855 354.081 61.4005C352.113 63.6576 351.129 67.1011 351.129 71.7311C351.129 76.3032 352.113 79.7757 354.081 82.1485C356.049 84.4635 358.653 85.621 361.894 85.621ZM397.887 41.8678C395.861 41.8678 394.27 41.3759 393.112 40.392C392.013 39.3503 391.463 37.9324 391.463 36.1383C391.463 34.2863 392.013 32.8683 393.112 31.8845C394.27 30.9006 395.861 30.4087 397.887 30.4087C402.17 30.4087 404.311 32.3185 404.311 36.1383C404.311 39.958 402.17 41.8678 397.887 41.8678ZM397.887 93.6077C396.151 93.6077 394.82 93.0868 393.894 92.0451C392.968 91.0033 392.505 89.5565 392.505 87.7045V55.8445C392.505 51.9091 394.299 49.9413 397.887 49.9413C401.533 49.9413 403.356 51.9091 403.356 55.8445V87.7045C403.356 89.5565 402.893 91.0033 401.967 92.0451C401.041 93.0868 399.681 93.6077 397.887 93.6077ZM420.014 93.6945C416.426 93.6945 414.631 91.8425 414.631 88.1385V55.3237C414.631 51.6776 416.397 49.8545 419.927 49.8545C423.457 49.8545 425.223 51.6776 425.223 55.3237V57.1467C426.669 54.716 428.608 52.864 431.039 51.5908C433.528 50.3175 436.305 49.6809 439.373 49.6809C449.385 49.6809 454.391 55.4973 454.391 67.1301V88.1385C454.391 91.8425 452.597 93.6945 449.009 93.6945C445.363 93.6945 443.54 91.8425 443.54 88.1385V67.6509C443.54 64.3521 442.903 61.9503 441.63 60.4456C440.415 58.9408 438.505 58.1885 435.9 58.1885C432.717 58.1885 430.171 59.2013 428.261 61.2269C426.409 63.1946 425.483 65.8279 425.483 69.1267V88.1385C425.483 91.8425 423.66 93.6945 420.014 93.6945Z" fill="#5B8989"/>
</svg>
