<svg width="138" height="33" viewBox="0 0 138 33" fill="none" xmlns="http://www.w3.org/2000/svg">
<path d="M9.25069 11.3746L0.282239 24.9422C5.39079 28.3016 12.2625 26.8944 15.6306 21.799L24.5991 8.23148C19.4905 4.87205 12.6188 6.27929 9.25069 11.3746Z" fill="#659898"/>
<path d="M20.0867 17.7167L13.5999 10.0287C10.7052 12.4586 10.3334 16.7689 12.7695 19.6561L19.2563 27.3441C22.151 24.9142 22.5228 20.6039 20.0867 17.7167Z" fill="#472D65"/>
<path d="M31.884 24.8159H35.8635V20.3541L37.4553 18.3443L41.5554 24.8159H46.3147L40.3736 15.6993L46.2102 8.35132H41.5232L36.0806 15.3134H35.8635V8.35132H31.884V24.8159ZM47.7799 24.8159H51.7594V18.1995H58.2471V24.8159H62.2186V8.35132H58.2471V14.9597H51.7594V8.35132H47.7799V24.8159ZM80.2549 16.5836C80.2549 11.141 76.8141 8.12622 72.3924 8.12622C67.9547 8.12622 64.5379 11.141 64.5379 16.5836C64.5379 22.0022 67.9547 25.0411 72.3924 25.0411C76.8141 25.0411 80.2549 22.0263 80.2549 16.5836ZM76.187 16.5836C76.187 19.8074 74.7721 21.552 72.3924 21.552C70.0208 21.552 68.5978 19.8074 68.5978 16.5836C68.5978 13.3598 70.0208 11.6153 72.3924 11.6153C74.7721 11.6153 76.187 13.3598 76.187 16.5836ZM89.267 8.35132V19.7351C89.259 21.158 88.6319 21.9057 87.4903 21.9057C86.397 21.9057 85.7297 21.2063 85.6895 19.928H81.7261C81.71 23.4734 84.1862 25.0411 87.2652 25.0411C90.7543 25.0411 93.1822 22.9428 93.1903 19.7351V8.35132H89.267ZM95.6885 24.8159H103.077C106.718 24.8159 108.809 22.8704 108.809 20.2094C108.809 17.8297 107.08 16.3344 105.087 16.246V16.0852C106.895 15.7073 108.166 14.3969 108.166 12.5157C108.166 10.0315 106.252 8.35132 102.554 8.35132H95.6885V24.8159ZM99.668 21.6082V17.685H102.2C103.72 17.685 104.652 18.489 104.652 19.7511C104.652 20.9169 103.848 21.6082 102.128 21.6082H99.668ZM99.668 15.1205V11.5108H101.935C103.262 11.5108 104.106 12.1941 104.106 13.2875C104.106 14.4452 103.173 15.1205 101.871 15.1205H99.668ZM114.702 8.35132H110.722V24.8159H114.702V8.35132ZM131.212 8.35132H127.241V17.8378H127.104L120.625 8.35132H117.2V24.8159H121.179V15.3134H121.284L127.836 24.8159H131.212V8.35132Z" fill="#37316B"/>
</svg>
